<?xml version="1.0" encoding="UTF-8" standalone="no"?>
<!-- Created with Inkscape (http://www.inkscape.org/) -->

<svg
   width="5.6444445mm"
   height="5.6444445mm"
   viewBox="0 0 5.6444445 5.6444445"
   version="1.1"
   id="svg381"
   inkscape:version="1.3 (0e150ed6c4, 2023-07-21)"
   sodipodi:docname="favicon.svg"
   xmlns:inkscape="http://www.inkscape.org/namespaces/inkscape"
   xmlns:sodipodi="http://sodipodi.sourceforge.net/DTD/sodipodi-0.dtd"
   xmlns="http://www.w3.org/2000/svg"
   xmlns:svg="http://www.w3.org/2000/svg">
  <sodipodi:namedview
     id="namedview383"
     pagecolor="#ffffff"
     bordercolor="#666666"
     borderopacity="1.0"
     inkscape:showpageshadow="2"
     inkscape:pageopacity="0.0"
     inkscape:pagecheckerboard="0"
     inkscape:deskcolor="#d1d1d1"
     inkscape:document-units="mm"
     showgrid="false"
     inkscape:zoom="19.02887"
     inkscape:cx="17.394622"
     inkscape:cy="13.032829"
     inkscape:window-width="1920"
     inkscape:window-height="1053"
     inkscape:window-x="0"
     inkscape:window-y="27"
     inkscape:window-maximized="1"
     inkscape:current-layer="layer1" />
  <defs
     id="defs378" />
  <g
     inkscape:label="Layer 1"
     inkscape:groupmode="layer"
     id="layer1"
     transform="translate(499.61438,164.86017)">
    <path
       style="color:#000000;fill:#e5bf00;fill-opacity:1;stroke-width:0.999998;-inkscape-stroke:none"
       d="m -496.79211,-164.86007 c -1.55564,0 -2.82229,1.26665 -2.82229,2.82223 0,1.55558 1.26665,2.82204 2.82229,2.82204 1.55552,0 2.82216,-1.26646 2.82216,-2.82204 0,-1.55558 -1.26664,-2.82223 -2.82216,-2.82223 z m 0,0.52495 c 1.27187,0 2.2974,1.02553 2.2974,2.29746 0,1.27188 -1.02553,2.29716 -2.2974,2.29716 -1.27194,0 -2.29746,-1.02528 -2.29746,-2.29716 0,-1.27193 1.02552,-2.29746 2.29746,-2.29746 z m -1.0987,1.62752 a 0.66979524,0.66979524 0 0 0 -0.66975,0.66982 0.66979524,0.66979524 0 0 0 0.66975,0.66981 0.66979524,0.66979524 0 0 0 0.66982,-0.66981 0.66979524,0.66979524 0 0 0 -0.66982,-0.66982 z"
       id="path4" />
  </g>
</svg>
