<?xml version="1.0" encoding="UTF-8" standalone="no"?>
<svg
   width="62"
   height="49"
   viewBox="0 0 62 49"
   fill="none"
   version="1.1"
   id="svg1"
   sodipodi:docname="eye.svg"
   inkscape:version="1.3 (0e150ed6c4, 2023-07-21)"
   xmlns:inkscape="http://www.inkscape.org/namespaces/inkscape"
   xmlns:sodipodi="http://sodipodi.sourceforge.net/DTD/sodipodi-0.dtd"
   xmlns="http://www.w3.org/2000/svg"
   xmlns:svg="http://www.w3.org/2000/svg">
  <defs
     id="defs1" />
  <sodipodi:namedview
     id="namedview1"
     pagecolor="#ffffff"
     bordercolor="#000000"
     borderopacity="0.25"
     inkscape:showpageshadow="2"
     inkscape:pageopacity="0.0"
     inkscape:pagecheckerboard="0"
     inkscape:deskcolor="#d1d1d1"
     inkscape:zoom="17.102041"
     inkscape:cx="30.990453"
     inkscape:cy="24.5"
     inkscape:window-width="1920"
     inkscape:window-height="1053"
     inkscape:window-x="0"
     inkscape:window-y="27"
     inkscape:window-maximized="1"
     inkscape:current-layer="svg1" />
  <path
     d="M31.2142 0.0709229C39.7038 0.0709229 47.246 3.89993 52.6164 8.63972C55.3122 11.0188 57.5329 13.6902 59.0986 16.3495C60.6369 18.9601 61.6756 21.7899 61.6756 24.4401C61.6756 27.0902 60.6399 29.9201 59.0986 32.5306C57.5329 35.1899 55.3122 37.8614 52.6164 40.2404C47.246 44.9802 39.7007 48.8092 31.2142 48.8092C22.7246 48.8092 15.1823 44.9802 9.81198 40.2404C7.11614 37.8614 4.8955 35.1899 3.32978 32.5306C1.78844 29.9201 0.752747 27.0902 0.752747 24.4401C0.752747 21.7899 1.78844 18.9601 3.32978 16.3495C4.8955 13.6902 7.11614 11.0188 9.81198 8.63972C15.1823 3.89993 22.7276 0.0709229 31.2142 0.0709229ZM31.2142 6.16321C24.5614 6.16321 18.396 9.18803 13.8451 13.2059C11.5787 15.2042 9.78761 17.3882 8.57829 19.4413C7.34155 21.5432 6.84503 23.2825 6.84503 24.4401C6.84503 25.5976 7.34155 27.337 8.57829 29.4388C9.78761 31.4919 11.5787 33.6729 13.8451 35.6742C18.396 39.6921 24.5614 42.7169 31.2142 42.7169C37.867 42.7169 44.0323 39.6921 48.5833 35.6742C50.8496 33.6729 52.6407 31.4919 53.8501 29.4388C55.0868 27.337 55.5833 25.5976 55.5833 24.4401C55.5833 23.2825 55.0868 21.5432 53.8501 19.4413C52.6407 17.3882 50.8496 15.2072 48.5833 13.2059C44.0323 9.18803 37.867 6.16321 31.2142 6.16321ZM31.2142 15.3016C31.4822 15.3016 31.7473 15.3138 32.0092 15.3351C31.3479 16.4953 31.086 17.8406 31.2639 19.1641C31.4419 20.4876 32.0497 21.716 32.994 22.6602C33.9383 23.6045 35.1667 24.2124 36.4902 24.3903C37.8137 24.5682 39.159 24.3064 40.3191 23.645C40.4793 25.4793 40.0816 27.3192 39.1783 28.9236C38.2749 30.5281 36.9079 31.8222 35.2564 32.6364C33.605 33.4507 31.7461 33.747 29.9233 33.4867C28.1005 33.2264 26.3989 32.4215 25.0414 31.1775C23.6839 29.9336 22.7338 28.3085 22.3157 26.5154C21.8975 24.7222 22.0308 22.8445 22.6981 21.1284C23.3653 19.4123 24.5354 17.9378 26.055 16.898C27.5746 15.8583 29.3729 15.3019 31.2142 15.3016Z"
     fill="#EC9147"
     id="path1"
     style="fill:#e5bf00;fill-opacity:1" />
</svg>
