<svg width="19" height="19" viewBox="0 0 19 19" fill="none" xmlns="http://www.w3.org/2000/svg">
<path d="M9.04932 0.291992C4.08732 0.291992 0.0493164 4.32999 0.0493164 9.29199C0.0493164 14.254 4.08732 18.292 9.04932 18.292C14.0113 18.292 18.0493 14.254 18.0493 9.29199C18.0493 4.32999 14.0113 0.291992 9.04932 0.291992ZM9.04932 1.79199C13.2006 1.79199 16.5493 5.14074 16.5493 9.29199C16.5511 11.0875 15.9073 12.8237 14.7353 14.1839C13.5633 15.5441 11.9413 16.4376 10.1653 16.7012V11.479H12.3013L12.6366 9.30924H10.1653V8.12424C10.1653 7.22424 10.4616 6.42399 11.3038 6.42399H12.6576V4.53099C12.4198 4.49874 11.9166 4.42899 10.9656 4.42899C8.97957 4.42899 7.81557 5.47749 7.81557 7.86699V9.30924H5.77407V11.479H7.81557V16.6825C6.06413 16.3942 4.47224 15.4926 3.32434 14.1388C2.17643 12.7849 1.54728 11.067 1.54932 9.29199C1.54932 5.14074 4.89807 1.79199 9.04932 1.79199Z" fill="white"/>
</svg>
