<?xml version="1.0" encoding="UTF-8" standalone="no"?>
<svg
   width="133.44569"
   height="74"
   viewBox="0 0 133.44569 74"
   fill="none"
   version="1.1"
   id="svg1"
   sodipodi:docname="footer-logo.svg"
   inkscape:version="1.3 (0e150ed6c4, 2023-07-21)"
   xmlns:inkscape="http://www.inkscape.org/namespaces/inkscape"
   xmlns:sodipodi="http://sodipodi.sourceforge.net/DTD/sodipodi-0.dtd"
   xmlns="http://www.w3.org/2000/svg"
   xmlns:svg="http://www.w3.org/2000/svg">
  <defs
     id="defs1" />
  <sodipodi:namedview
     id="namedview1"
     pagecolor="#ffffff"
     bordercolor="#000000"
     borderopacity="0.25"
     inkscape:showpageshadow="2"
     inkscape:pageopacity="0.0"
     inkscape:pagecheckerboard="0"
     inkscape:deskcolor="#d1d1d1"
     inkscape:zoom="4.9923077"
     inkscape:cx="79.922958"
     inkscape:cy="51.879815"
     inkscape:window-width="1920"
     inkscape:window-height="1053"
     inkscape:window-x="0"
     inkscape:window-y="27"
     inkscape:window-maximized="1"
     inkscape:current-layer="svg1" />
  <path
     id="path2"
     style="color:#000000;fill:#e5bf00;fill-opacity:1;stroke-width:3.77953;-inkscape-stroke:none"
     d="M 29.967639,0 C 13.45019,0 6.2e-5,13.45015 6.2e-5,29.967541 c 0,16.517384 13.450128,29.965247 29.967577,29.965247 16.51739,0 29.967586,-13.447863 29.967586,-29.965247 C 59.935225,13.45015 46.485029,0 29.967639,0 Z m 0,5.5725878 c 13.505521,0 24.394936,10.8893942 24.394936,24.3949532 0,13.505558 -10.889415,24.392092 -24.394936,24.392092 -13.50564,0 -24.394455,-10.886534 -24.394455,-24.392092 0,-13.505559 10.888815,-24.3949532 24.394455,-24.3949532 z M 61.905475,17.691737 v 26.80024 h 13.37955 l 7.60402,-4.388946 V 21.03528 h -5.57312 v 15.850334 l -2.29417,1.323592 V 17.691737 h -5.5732 v 21.227081 h -1.97044 V 17.691737 Z m 22.95341,3.343543 v 17.459037 l 5.57318,-1.49351 V 26.608438 h 1.9699 v 9.86478 l 5.57307,1.493509 V 21.03528 Z m 15.08424,0 v 17.458468 5.73e-4 l 5.570895,-1.49235 v -3.12296 h 7.54289 V 21.03528 Z m 15.085995,0 v 13.417406 l 5.57264,4.041631 V 26.608438 h 4.00989 l 3.26074,1.8823 5.57312,-3.217417 -7.34032,-4.238041 z m -96.727417,1.818935 a 7.1121208,7.1121208 0 0 0 -7.111575,7.112178 7.1121208,7.1121208 0 0 0 7.111575,7.112178 7.1121208,7.1121208 0 0 0 7.112241,-7.112178 7.1121208,7.1121208 0 0 0 -7.112241,-7.112178 z m 87.213927,3.754223 h 1.97051 v 1.697992 h -1.97051 z" />
  <path
     style="font-weight:300;font-size:9.85238px;line-height:1;font-family:Alexandria;-inkscape-font-specification:'Alexandria Light';letter-spacing:2.28586px;fill:#fff7cc;stroke-width:18.8977"
     d="m 1.229244,71.363301 q -0.391907,0 -0.593826,0.130646 -0.201921,0.130652 -0.201921,0.39788 0,0.267234 0.190045,0.433513 0.195954,0.160337 0.528489,0.160337 0.273226,0 0.492928,-0.08908 0.219702,-0.08907 0.362251,-0.255355 0.148458,-0.166273 0.20192,-0.403815 l 0.118742,0.374125 q -0.166298,0.374124 -0.492866,0.558216 -0.32663,0.17816 -0.771999,0.17816 -0.320723,0 -0.564172,-0.12471 Q 0.261293,72.598511 0.130617,72.384722 0,72.170934 0,71.903707 0,71.499889 0.308789,71.262347 0.617576,71.024804 1.169873,71.018866 H 2.280375 V 71.3633 Z m 0.968012,-0.552279 q 0,-0.356308 -0.213792,-0.552279 -0.207889,-0.195971 -0.623545,-0.195971 -0.26129,0 -0.5048,0.09502 -0.243449,0.09502 -0.48696,0.267228 L 0.172205,70.122154 q 0.201922,-0.136582 0.391967,-0.2316 0.189988,-0.09502 0.403782,-0.142524 0.213795,-0.05346 0.481052,-0.05346 0.581952,0 0.890739,0.29099 0.308789,0.285044 0.314755,0.783877 l 0.006,2.060661 H 2.20923 Z m 7.393542,-1.116439 q 0.445369,0 0.783874,0.201908 0.338502,0.201908 0.528548,0.558223 0.189986,0.356308 0.189986,0.819508 0,0.457268 -0.189986,0.813576 -0.190046,0.356308 -0.528548,0.558217 -0.332537,0.19597 -0.777967,0.19597 -0.427529,0 -0.748251,-0.190028 -0.314695,-0.195971 -0.492867,-0.546342 -0.172205,-0.356308 -0.172205,-0.831393 0,-0.481018 0.172205,-0.837326 0.178172,-0.356308 0.492867,-0.546342 0.320722,-0.195971 0.742344,-0.195971 z m -0.08312,0.374126 q -0.326628,0 -0.582013,0.160342 -0.255324,0.1544 -0.397872,0.421628 -0.142489,0.267235 -0.142489,0.617606 0,0.344433 0.142489,0.617604 0.142548,0.267234 0.397872,0.421634 0.255385,0.1544 0.582013,0.1544 0.326569,0 0.575986,-0.1544 0.255385,-0.1544 0.397874,-0.421634 0.14255,-0.273171 0.14255,-0.617604 0,-0.350371 -0.14255,-0.617606 Q 10.339049,70.383451 10.083664,70.229051 9.834247,70.068709 9.507678,70.068709 Z M 7.922092,69.706463 h 0.463212 v 4.275716 H 7.922092 Z m 6.948111,0.409753 q -0.350377,-0.006 -0.605762,0.148465 -0.249417,0.148461 -0.385999,0.421633 -0.136582,0.267233 -0.136582,0.629478 l -0.160331,-0.01784 q 0,-0.510709 0.154424,-0.867017 0.154364,-0.356313 0.445369,-0.54634 0.291007,-0.190035 0.688881,-0.190035 z m -1.585588,-0.409753 h 0.463212 v 3.123649 h -0.463212 z m 4.857723,-0.01188 q 0.46321,0 0.819555,0.201908 0.362252,0.195972 0.564112,0.55228 0.20192,0.356314 0.20192,0.819514 0,0.463205 -0.20192,0.819513 -0.20186,0.356309 -0.564112,0.558215 -0.356345,0.195972 -0.819555,0.195972 -0.463212,0 -0.825403,-0.195972 -0.356345,-0.201906 -0.558265,-0.558215 -0.20192,-0.356308 -0.20192,-0.819513 0,-0.4632 0.20192,-0.819514 0.20192,-0.356308 0.558265,-0.55228 0.362191,-0.201908 0.825403,-0.201908 z m 0,0.386005 q -0.326569,0 -0.581953,0.154401 -0.255383,0.148462 -0.397873,0.415689 -0.14255,0.267236 -0.14255,0.617607 0,0.356314 0.14255,0.629479 0.14249,0.267233 0.397873,0.421633 0.255384,0.148463 0.581953,0.148463 0.332595,0 0.582013,-0.148463 0.255324,-0.1544 0.397872,-0.421633 0.142491,-0.273165 0.142491,-0.629479 0,-0.350371 -0.142491,-0.617607 -0.142548,-0.267227 -0.397872,-0.415689 -0.249418,-0.154401 -0.582013,-0.154401 z m 5.475358,-0.386005 q 0.44543,0 0.783872,0.201908 0.338503,0.201908 0.528549,0.558221 0.190046,0.356309 0.190046,0.81951 0,0.457268 -0.190046,0.813576 -0.190046,0.356309 -0.528549,0.558215 -0.332535,0.195972 -0.777906,0.195972 -0.427587,0 -0.74825,-0.190028 -0.314755,-0.195971 -0.492928,-0.546342 -0.172204,-0.356308 -0.172204,-0.831393 0,-0.481018 0.172204,-0.837325 0.178173,-0.356309 0.492928,-0.546343 0.320663,-0.195971 0.742284,-0.195971 z m -0.08312,0.374126 q -0.326629,0 -0.581954,0.160342 -0.255383,0.1544 -0.397872,0.421627 -0.142551,0.267236 -0.142551,0.617607 0,0.344433 0.142551,0.617604 0.142489,0.267234 0.397872,0.421635 0.255325,0.154399 0.581954,0.154399 0.326628,0 0.576044,-0.154399 0.255325,-0.154401 0.397875,-0.421635 0.142489,-0.273171 0.142489,-0.617604 0,-0.350371 -0.142489,-0.617607 -0.14255,-0.267227 -0.397875,-0.421627 -0.249416,-0.160342 -0.576044,-0.160342 z m -1.585588,-0.362245 h 0.463211 v 4.275715 h -0.463211 z m 7.642898,1.377729 q -0.01206,-0.314743 -0.148457,-0.540406 -0.130616,-0.231599 -0.362251,-0.356308 -0.225668,-0.124707 -0.534455,-0.124707 -0.326631,0 -0.576046,0.148462 -0.243451,0.148463 -0.386,0.415697 -0.14249,0.267227 -0.14249,0.623542 0,0.368183 0.14249,0.647291 0.148455,0.273171 0.409808,0.427576 0.261291,0.1544 0.593826,0.1544 0.593828,0 0.967953,-0.403816 l 0.255384,0.255354 q -0.225669,0.24348 -0.546331,0.380062 -0.320721,0.130645 -0.706721,0.130645 -0.463211,0 -0.819496,-0.195972 -0.350377,-0.201906 -0.546329,-0.558215 -0.195955,-0.356308 -0.195955,-0.819513 0,-0.4632 0.195955,-0.813573 0.195952,-0.356313 0.546329,-0.552283 0.356285,-0.20191 0.807623,-0.207846 0.504799,0 0.837336,0.219725 0.332536,0.213788 0.48696,0.605725 0.160329,0.386006 0.130674,0.908595 h -2.642686 v -0.344435 z m 4.17487,-0.967977 q -0.350377,-0.006 -0.605761,0.148465 -0.249417,0.148461 -0.386,0.421633 -0.136581,0.267233 -0.136581,0.629478 l -0.160332,-0.01784 q 0,-0.510709 0.154424,-0.867017 0.154363,-0.356314 0.445369,-0.546342 0.291008,-0.190034 0.688881,-0.190034 z m -1.585587,-0.409752 h 0.463211 v 3.123646 h -0.463211 z m 4.157027,2.185363 q 0,0.296925 0.106868,0.42757 0.106867,0.12471 0.308788,0.12471 0.118801,-0.006 0.243509,-0.04159 0.124709,-0.04159 0.255324,-0.124709 l 0.130676,0.338489 q -0.160331,0.106899 -0.34447,0.172219 -0.178112,0.05938 -0.362251,0.05938 -0.231576,0 -0.409748,-0.08908 -0.178112,-0.09502 -0.285039,-0.29099 -0.10096,-0.195969 -0.10096,-0.504769 v -2.969255 h 0.457303 z m -0.90864,-2.090353 h 1.900342 v 0.344434 h -1.900342 z m 5.02408,3.474025 q -0.148517,0.356308 -0.391966,0.540398 -0.237543,0.184098 -0.546331,0.184098 -0.195953,0 -0.356344,-0.05346 -0.160331,-0.05346 -0.302821,-0.16628 l 0.195954,-0.344434 q 0.207827,0.142526 0.439463,0.142526 0.178112,0 0.326628,-0.118772 0.154364,-0.112828 0.243451,-0.344433 l 0.130675,-0.302863 -1.294642,-3.10583 h 0.481054 l 1.045164,2.63075 0.9917,-2.63075 h 0.475085 z m 8.533758,-2.256625 q 0,-0.42757 -0.231636,-0.671051 -0.225668,-0.243474 -0.635416,-0.243474 -0.480992,0.01188 -0.754157,0.344427 -0.273226,0.326619 -0.273226,0.849206 h -0.154364 q 0,-0.546335 0.160331,-0.896712 0.166299,-0.356309 0.469119,-0.528527 0.302881,-0.178155 0.718595,-0.178155 0.368158,0 0.623543,0.148464 0.261291,0.148463 0.397873,0.421635 0.14249,0.267234 0.14249,0.647296 v 1.918134 h -0.463152 z m 2.357526,0 q 0,-0.42757 -0.231575,-0.671051 -0.231576,-0.243474 -0.635417,-0.243474 -0.480991,0.01188 -0.754218,0.344427 -0.273164,0.326619 -0.273164,0.849206 h -0.160331 q 0,-0.546335 0.160331,-0.896712 0.166298,-0.356309 0.469179,-0.528527 0.302819,-0.178155 0.724501,-0.178155 0.362252,0 0.623542,0.148464 0.261292,0.148463 0.397874,0.421635 0.14249,0.267234 0.14249,0.647296 v 1.918134 H 51.34492 Z M 46.635715,69.70647 h 0.457244 v 3.123647 h -0.457244 z m 8.5396,1.656837 q -0.3919,0 -0.59382,0.130647 -0.20192,0.130652 -0.20192,0.397879 0,0.267233 0.19004,0.433514 0.19596,0.160336 0.52855,0.160336 0.27317,0 0.49287,-0.08908 0.2197,-0.08907 0.36225,-0.255353 0.14846,-0.166275 0.20192,-0.403816 l 0.11874,0.374125 q -0.16623,0.374124 -0.49287,0.558215 -0.32662,0.178161 -0.77199,0.178161 -0.32072,0 -0.56417,-0.124709 -0.23755,-0.124708 -0.36816,-0.338496 -0.13068,-0.213788 -0.13068,-0.481018 0,-0.403817 0.30879,-0.641358 0.30879,-0.237543 0.86108,-0.24348 h 1.11051 v 0.344433 z m 0.96801,-0.55228 q 0,-0.356308 -0.21378,-0.552277 -0.20783,-0.195972 -0.62355,-0.195972 -0.26129,0 -0.5048,0.09502 -0.24345,0.09502 -0.48696,0.267229 l -0.19595,-0.302863 q 0.20192,-0.136582 0.39196,-0.2316 0.19005,-0.09502 0.40378,-0.142524 0.2138,-0.05346 0.48106,-0.05346 0.58195,0 0.89074,0.290988 0.30885,0.285046 0.31475,0.78388 l 0.007,2.06066 h -0.45135 z m 5.27344,0.207847 q 0,-0.42757 -0.23754,-0.665108 -0.23158,-0.243481 -0.64729,-0.243481 -0.49883,0.006 -0.77796,0.338491 -0.27907,0.326619 -0.27907,0.849206 h -0.16034 q 0,-0.546335 0.16624,-0.896712 0.1663,-0.356309 0.47509,-0.528527 0.31475,-0.178155 0.73638,-0.178155 0.37412,0 0.64138,0.148464 0.26719,0.148463 0.40378,0.421635 0.14255,0.267234 0.14255,0.647296 v 1.918134 h -0.46322 z m -2.39917,-1.312404 h 0.46321 v 3.123647 h -0.46321 z m 6.23548,1.656837 q -0.3919,0 -0.59383,0.130647 -0.20191,0.130652 -0.20191,0.397879 0,0.267233 0.19004,0.433514 0.19595,0.160336 0.52855,0.160336 0.27316,0 0.49286,-0.08908 0.21977,-0.08907 0.36226,-0.255353 0.14845,-0.166275 0.20192,-0.403816 l 0.11874,0.374125 q -0.16624,0.374124 -0.49287,0.558215 -0.32662,0.178161 -0.772,0.178161 -0.32066,0 -0.56417,-0.124709 -0.23754,-0.124708 -0.36816,-0.338496 -0.13067,-0.213788 -0.13067,-0.481018 0,-0.403817 0.30878,-0.641358 0.30886,-0.237543 0.8611,-0.24348 h 1.11049 v 0.344433 z m 0.96801,-0.55228 q 0,-0.356308 -0.21379,-0.552277 -0.20782,-0.195972 -0.62354,-0.195972 -0.26129,0 -0.5048,0.09502 -0.24345,0.09502 -0.4869,0.267229 l -0.19601,-0.302863 q 0.20191,-0.136582 0.39196,-0.2316 0.19005,-0.09502 0.40378,-0.142524 0.2138,-0.05346 0.48105,-0.05346 0.58195,0 0.89074,0.290988 0.30885,0.285046 0.31476,0.78388 l 0.007,2.06066 h -0.45134 z m 5.60008,1.692473 q 0,0.457264 -0.19596,0.789818 -0.19602,0.332559 -0.54639,0.516651 -0.35038,0.18409 -0.83137,0.18409 -0.36817,0 -0.68292,-0.124709 -0.31475,-0.118764 -0.59979,-0.33849 l 0.21379,-0.32068 q 0.23158,0.195971 0.48697,0.302861 0.25532,0.106894 0.56411,0.106894 0.34447,0 0.59389,-0.136584 0.25532,-0.136583 0.39191,-0.385998 0.14253,-0.243481 0.14253,-0.581979 V 69.70647 h 0.46323 z m -1.62718,-2.808912 q 0.4157,-0.006 0.71859,0.184099 0.30283,0.184091 0.46912,0.522583 0.17221,0.332558 0.16629,0.789821 0.007,0.457262 -0.16032,0.795758 -0.1663,0.338498 -0.46918,0.522589 -0.30282,0.184091 -0.71263,0.184091 -0.42163,0 -0.74229,-0.190029 -0.32066,-0.190034 -0.50479,-0.528525 -0.17811,-0.344433 -0.17811,-0.783884 0,-0.439444 0.17811,-0.772005 0.17816,-0.338491 0.49883,-0.528526 0.32072,-0.195972 0.73638,-0.195972 z m 0.0951,0.362253 q -0.30885,0 -0.5523,0.148463 -0.24345,0.148462 -0.38009,0.409754 -0.13659,0.255352 -0.1425,0.587912 0.007,0.326617 0.1425,0.58791 0.13664,0.255352 0.37413,0.403816 0.2435,0.142525 0.55826,0.142525 0.31469,0 0.55224,-0.142525 0.24351,-0.148464 0.38009,-0.403816 0.13657,-0.261293 0.13657,-0.58791 0,-0.338496 -0.13657,-0.59385 -0.13658,-0.255354 -0.38009,-0.403816 -0.23755,-0.148463 -0.55224,-0.148463 z m 6.31269,0.962033 q 0,-0.42757 -0.23164,-0.671051 -0.22566,-0.243474 -0.63541,-0.243474 -0.48099,0.01188 -0.75416,0.344427 -0.27322,0.326619 -0.27322,0.849206 h -0.15436 q 0,-0.546335 0.16032,-0.896712 0.16631,-0.356309 0.46912,-0.528527 0.30288,-0.178155 0.71859,-0.178155 0.36817,0 0.62355,0.148464 0.26129,0.148463 0.39787,0.421635 0.14249,0.267234 0.14249,0.647296 v 1.918134 h -0.46315 z m 2.35753,0 q 0,-0.42757 -0.23157,-0.671051 -0.23159,-0.243474 -0.63542,-0.243474 -0.481,0.01188 -0.75423,0.344427 -0.27316,0.326619 -0.27316,0.849206 h -0.16033 q 0,-0.546335 0.16033,-0.896712 0.1663,-0.356309 0.46918,-0.528527 0.30282,-0.178155 0.7245,-0.178155 0.36225,0 0.62355,0.148464 0.26129,0.148463 0.39787,0.421635 0.14248,0.267234 0.14248,0.647296 v 1.918134 h -0.4632 z m -4.7092,-1.312404 h 0.45724 v 3.123647 h -0.45724 z m 9.85799,1.377729 q -0.012,-0.314742 -0.14846,-0.540405 -0.13067,-0.2316 -0.36225,-0.356308 -0.22567,-0.124708 -0.53446,-0.124708 -0.32663,0 -0.57605,0.148461 -0.2435,0.148464 -0.38599,0.415697 -0.14255,0.267228 -0.14255,0.623543 0,0.368183 0.14255,0.647291 0.14845,0.273172 0.40974,0.427577 0.2613,0.154399 0.59384,0.154399 0.59388,0 0.968,-0.403816 l 0.25533,0.255354 q -0.22567,0.24348 -0.54633,0.380062 -0.32066,0.130645 -0.70666,0.130645 -0.46321,0 -0.81956,-0.195971 -0.35038,-0.201907 -0.54633,-0.558215 -0.19595,-0.356308 -0.19595,-0.819514 0,-0.4632 0.19595,-0.813572 0.19595,-0.356312 0.54633,-0.552284 0.35635,-0.201909 0.80768,-0.207847 0.50475,0 0.83728,0.219726 0.3326,0.213789 0.48696,0.605726 0.16033,0.386005 0.13067,0.908594 h -2.64262 v -0.344435 z m 4.9884,-0.06532 q 0,-0.42757 -0.23754,-0.665109 -0.23164,-0.24348 -0.6473,-0.24348 -0.49882,0.006 -0.77797,0.338491 -0.27913,0.326618 -0.27913,0.849206 h -0.16032 q 0,-0.546335 0.1663,-0.896713 0.16629,-0.356309 0.47508,-0.528526 0.31475,-0.178155 0.73637,-0.178155 0.37413,0 0.64133,0.148464 0.26725,0.148463 0.40384,0.421635 0.14254,0.267233 0.14254,0.647296 v 1.918134 h -0.4632 z m -2.39919,-1.312405 h 0.46323 v 3.123648 h -0.46323 z m 5.84358,2.185364 q 0,0.296925 0.10687,0.427569 0.10693,0.124711 0.30879,0.124711 0.1188,-0.006 0.24351,-0.04159 0.12471,-0.04159 0.25532,-0.124708 l 0.13068,0.33849 q -0.16033,0.106897 -0.34447,0.172217 -0.17812,0.05938 -0.3622,0.05938 -0.23163,0 -0.4098,-0.08908 -0.17811,-0.09502 -0.28504,-0.290989 -0.10096,-0.19597 -0.10096,-0.50477 V 68.99382 h 0.4573 z m -0.90857,-2.090352 h 1.90027 v 0.344433 h -1.90027 z m 9.026625,0.653238 q -0.17221,-0.172216 -0.40975,-0.267234 -0.23164,-0.100953 -0.516685,-0.100953 -0.32065,0 -0.57604,0.148463 -0.24942,0.148462 -0.39191,0.415689 -0.14254,0.267236 -0.14254,0.617607 0,0.350371 0.14254,0.623542 0.14249,0.267233 0.39191,0.421633 0.25539,0.148464 0.57604,0.148464 0.302895,0 0.552305,-0.100955 0.24942,-0.10689 0.42163,-0.3088 l 0.26129,0.261291 q -0.20783,0.249417 -0.52849,0.391943 -0.32072,0.136582 -0.724515,0.136582 -0.45133,0 -0.80172,-0.195971 -0.35036,-0.201907 -0.55229,-0.558215 -0.19595,-0.356309 -0.19595,-0.819514 0,-0.4632 0.19595,-0.813572 0.20193,-0.356312 0.55229,-0.558222 0.35039,-0.201909 0.80172,-0.201909 0.380045,0 0.682915,0.12471 0.30879,0.118771 0.52259,0.332553 z m 3.65222,-0.760131 q 0.46322,0 0.8195,0.201909 0.36225,0.195972 0.56417,0.552279 0.20193,0.356315 0.20193,0.819515 0,0.463205 -0.20193,0.819514 -0.20192,0.356308 -0.56417,0.558215 -0.35628,0.195971 -0.8195,0.195971 -0.4632,0 -0.82546,-0.195971 -0.35628,-0.201907 -0.5582,-0.558215 -0.20192,-0.356309 -0.20192,-0.819514 0,-0.4632 0.20192,-0.819515 0.20192,-0.356307 0.5582,-0.552279 0.36226,-0.201909 0.82546,-0.201909 z m 0,0.386007 q -0.32662,0 -0.58195,0.1544 -0.25538,0.148462 -0.39787,0.415689 -0.14255,0.267236 -0.14255,0.617607 0,0.356315 0.14255,0.629479 0.14249,0.267234 0.39787,0.421632 0.25533,0.148465 0.58195,0.148465 0.3326,0 0.58202,-0.148465 0.25533,-0.154398 0.39787,-0.421632 0.14249,-0.273164 0.14249,-0.629479 0,-0.350371 -0.14249,-0.617607 -0.14254,-0.267227 -0.39787,-0.415689 -0.24942,-0.1544 -0.58202,-0.1544 z m 6.12862,0.938279 q 0,-0.42757 -0.23164,-0.671051 -0.2256,-0.243475 -0.63541,-0.243475 -0.48099,0.01188 -0.75416,0.344428 -0.27316,0.326618 -0.27316,0.849206 h -0.15442 q 0,-0.546335 0.16032,-0.896713 0.1663,-0.356309 0.46918,-0.528526 0.30282,-0.178155 0.71853,-0.178155 0.36823,0 0.62355,0.148464 0.26129,0.148463 0.39787,0.421635 0.14255,0.267233 0.14255,0.647296 v 1.918134 h -0.46321 z m 2.3576,0 q 0,-0.42757 -0.23164,-0.671051 -0.23159,-0.243475 -0.63542,-0.243475 -0.481,0.01188 -0.75416,0.344428 -0.27317,0.326618 -0.27317,0.849206 h -0.16033 q 0,-0.546335 0.16033,-0.896713 0.16624,-0.356309 0.46912,-0.528526 0.30288,-0.178155 0.72451,-0.178155 0.36224,0 0.62354,0.148464 0.26129,0.148463 0.39787,0.421635 0.14255,0.267233 0.14255,0.647296 v 1.918134 h -0.4632 z m -4.70927,-1.312405 h 0.4573 v 3.123648 h -0.4573 z m 9.27603,-0.01188 q 0.44537,0 0.78387,0.20191 0.33851,0.201907 0.5285,0.558221 0.19004,0.356308 0.19004,0.819508 0,0.457268 -0.19004,0.813576 -0.18999,0.356308 -0.5285,0.558217 -0.33253,0.195971 -0.77795,0.195971 -0.42754,0 -0.74826,-0.190028 -0.31475,-0.195971 -0.49287,-0.546342 -0.1722,-0.356308 -0.1722,-0.831394 0,-0.481017 0.1722,-0.837324 0.17812,-0.356309 0.49287,-0.546343 0.32072,-0.195972 0.74234,-0.195972 z m -0.0832,0.374127 q -0.32656,0 -0.58195,0.160343 -0.25533,0.154399 -0.39788,0.421626 -0.14255,0.267235 -0.14255,0.617607 0,0.344433 0.14255,0.617605 0.14255,0.267232 0.39788,0.421632 0.25539,0.154402 0.58195,0.154402 0.32663,0 0.57605,-0.154402 0.25538,-0.1544 0.39787,-0.421632 0.14255,-0.273172 0.14255,-0.617605 0,-0.350372 -0.14255,-0.617607 -0.14249,-0.267227 -0.39787,-0.421626 -0.24942,-0.160343 -0.57605,-0.160343 z m -1.58552,-0.362246 h 0.46315 v 4.275715 h -0.46315 z m 6.32457,1.656838 q -0.39197,0 -0.59389,0.130645 -0.20192,0.130652 -0.20192,0.39788 0,0.267234 0.19005,0.433514 0.19595,0.160337 0.52854,0.160337 0.27317,0 0.49288,-0.08908 0.21975,-0.08907 0.36224,-0.255353 0.14846,-0.166276 0.20193,-0.403817 l 0.11873,0.374126 q -0.16624,0.374125 -0.49286,0.558216 -0.32663,0.178159 -0.772,0.178159 -0.32066,0 -0.56417,-0.124707 -0.23755,-0.124708 -0.36816,-0.338496 -0.13068,-0.21379 -0.13068,-0.481018 0,-0.403817 0.30879,-0.641358 0.30885,-0.237543 0.86109,-0.243481 h 1.1105 v 0.344434 z m 0.96795,-0.55228 q 0,-0.356308 -0.21379,-0.552279 -0.20783,-0.195971 -0.62355,-0.195971 -0.26129,0 -0.50474,0.09502 -0.24351,0.09502 -0.48696,0.267229 l -0.19601,-0.302863 q 0.20192,-0.136583 0.39196,-0.2316 0.19005,-0.09502 0.40378,-0.142526 0.2138,-0.05346 0.48106,-0.05346 0.58195,0 0.89074,0.290988 0.30884,0.285046 0.31476,0.78388 l 0.007,2.06066 h -0.45134 z m 5.27343,0.207846 q 0,-0.427571 -0.23753,-0.665107 -0.23159,-0.243481 -0.6473,-0.243481 -0.49883,0.006 -0.77798,0.338491 -0.27905,0.326618 -0.27905,0.849205 h -0.16034 q 0,-0.546336 0.16624,-0.896713 0.1663,-0.356309 0.47508,-0.528525 0.31476,-0.178155 0.73638,-0.178155 0.37413,0 0.64138,0.148464 0.2672,0.148461 0.40379,0.421633 0.14254,0.267234 0.14254,0.647298 v 1.918133 h -0.46321 z m -2.39917,-1.312404 h 0.46321 v 3.123647 h -0.46321 z m 6.14645,3.569037 q -0.14846,0.356308 -0.39196,0.540399 Q 131.37912,74 131.07031,74 q -0.19595,0 -0.35627,-0.05346 -0.16039,-0.05346 -0.30287,-0.166281 l 0.19595,-0.344433 q 0.20783,0.142525 0.43947,0.142525 0.17816,0 0.3266,-0.118771 0.15438,-0.112829 0.24347,-0.344435 l 0.13067,-0.302862 -1.29464,-3.105832 h 0.48106 l 1.04516,2.630752 0.99176,-2.630752 h 0.47503 z"
     id="text6"
     aria-label="a property managment company" />
</svg>
