<?xml version="1.0" encoding="UTF-8" standalone="no"?>
<svg
   width="792"
   height="526"
   viewBox="0 0 792 526"
   fill="none"
   version="1.1"
   id="svg68"
   sodipodi:docname="Illustration.svg"
   inkscape:version="1.3 (0e150ed6c4, 2023-07-21)"
   xmlns:inkscape="http://www.inkscape.org/namespaces/inkscape"
   xmlns:sodipodi="http://sodipodi.sourceforge.net/DTD/sodipodi-0.dtd"
   xmlns="http://www.w3.org/2000/svg"
   xmlns:svg="http://www.w3.org/2000/svg">
  <sodipodi:namedview
     id="namedview68"
     pagecolor="#ffffff"
     bordercolor="#000000"
     borderopacity="0.25"
     inkscape:showpageshadow="2"
     inkscape:pageopacity="0.0"
     inkscape:pagecheckerboard="0"
     inkscape:deskcolor="#d1d1d1"
     inkscape:zoom="0.56326567"
     inkscape:cx="401.23163"
     inkscape:cy="475.7968"
     inkscape:window-width="1920"
     inkscape:window-height="1053"
     inkscape:window-x="0"
     inkscape:window-y="27"
     inkscape:window-maximized="1"
     inkscape:current-layer="svg68" />
  <path
     d="M72.0708 289.058L68.368 385.793L557.135 383.942L555.746 289.058C555.746 289.058 555.746 274.71 550.192 267.767C544.46 260.602 535.399 258.047 526.587 258.047L437.724 258.048C329.651 258.048 174.655 258.048 100.304 258.047C94.7503 258.047 86.4191 259.899 79.4764 267.767C72.3012 275.899 72.0708 289.058 72.0708 289.058Z"
     fill="#EC9147"
     id="path1"
     style="fill:#15270c;fill-opacity:1" />
  <path
     d="M546.026 470.957H73.9221V491.323H546.026V470.957Z"
     fill="#443C8E"
     stroke="#2F2D3C"
     id="path2"
     style="fill:#3f7524;fill-opacity:1" />
  <path
     d="M46.1514 457.535C38.2846 449.203 19.3062 414.953 16.0663 353.394C14.5273 324.152 63.8553 328.569 83.6419 350.154C98.9159 366.817 101.23 398.29 101.23 398.29L530.752 393.661C530.752 393.661 534.796 353.792 553.432 338.12C573.797 320.995 616.887 318.948 613.602 343.674C604.808 409.861 591.386 443.649 584.443 453.369C579.593 460.159 566.173 473.852 551.581 474.66C334.042 486.694 253.97 485.256 91.5105 475.586C74.6441 474.582 59.5594 471.735 46.1514 457.535Z"
     fill="#EC9147"
     id="path3"
     style="fill:#15270c;fill-opacity:1" />
  <path
     d="M97.0649 381.628C98.0998 384.868 82.6017 398.391 86.4194 406.159C88.1409 409.661 93.8249 409.63 93.8249 409.63H207.454L325.711 409.399H537.233C537.233 409.399 541.894 409.399 543.712 407.084C548.804 400.605 534.918 383.942 534.918 383.942C534.918 383.942 535.191 374.504 537.233 368.668C541.771 355.691 553.895 337.657 553.895 337.657C553.895 337.657 533.067 354.497 526.124 354.783C390.973 360.337 110.513 359.233 104.008 354.783C86.4194 342.749 67.4426 338.583 67.4426 338.583C67.4426 338.583 86.4194 348.303 97.0649 381.628Z"
     fill="#2F2D3C"
     id="path4"
     style="fill:#3f7524;fill-opacity:1" />
  <g
     filter="url(#filter0_d_1_235)"
     id="g5">
    <path
       d="M305.732 366.804C257.319 366.804 160.493 365.792 118.858 366.803C94.8757 367.386 77.2232 405.233 92.7155 405.233H306.701C315.415 405.233 319.288 366.804 305.732 366.804Z"
       fill="#EC9147"
       id="path5"
       style="fill:#15270c;fill-opacity:1" />
  </g>
  <g
     filter="url(#filter1_d_1_235)"
     id="g6">
    <path
       d="M325.324 366.804C373.737 366.804 470.563 365.792 512.198 366.803C536.181 367.386 553.833 405.233 538.341 405.233H324.356C315.642 405.233 311.769 366.804 325.324 366.804Z"
       fill="#EC9147"
       id="path6"
       style="fill:#15270c;fill-opacity:1" />
  </g>
  <ellipse
     cx="310.9"
     cy="520.009"
     rx="296.222"
     ry="5.55417"
     fill="#443C8E"
     fill-opacity="0.35"
     id="ellipse6"
     style="fill:#3f7524;fill-opacity:1" />
  <path
     d="M96.1384 514.928V491.323H108.635L102.155 514.928H96.1384Z"
     fill="#2F2D3C"
     stroke="#2F2D3C"
     id="path7"
     style="fill:#3f7524;fill-opacity:1;stroke:none" />
  <path
     d="M523.347 514.928V491.323H510.85L517.33 514.928H523.347Z"
     fill="#2F2D3C"
     stroke="#2F2D3C"
     id="path8"
     style="fill:#3f7524;fill-opacity:1;stroke:none" />
  <rect
     x="650.63"
     y="369.131"
     width="140.706"
     height="145.334"
     fill="#3C8E7A"
     id="rect8"
     style="fill:#0d2026;fill-opacity:1" />
  <rect
     x="658.961"
     y="390.422"
     width="124.043"
     height="29.6222"
     fill="#443C8E"
     id="rect9"
     style="fill:#3f7524;fill-opacity:1" />
  <rect
     x="658.961"
     y="430.227"
     width="124.043"
     height="29.6222"
     fill="#443C8E"
     id="rect10"
     style="fill:#3f7524;fill-opacity:1" />
  <rect
     x="658.961"
     y="470.032"
     width="124.043"
     height="29.6222"
     fill="#443C8E"
     id="rect11"
     style="fill:#3f7524;fill-opacity:1" />
  <rect
     x="658.961"
     y="418.193"
     width="124.043"
     height="1.85139"
     fill="#2F2D3C"
     id="rect12"
     style="fill:#3f7524;fill-opacity:1" />
  <rect
     x="658.961"
     y="457.998"
     width="124.043"
     height="1.85139"
     fill="#2F2D3C"
     id="rect13"
     style="fill:#3f7524;fill-opacity:1" />
  <rect
     x="716.354"
     y="362.651"
     width="37.0278"
     height="9.25695"
     rx="3"
     fill="#EC9147"
     id="rect14"
     style="fill:#15270c;fill-opacity:1" />
  <rect
     x="658.961"
     y="497.803"
     width="124.043"
     height="1.85139"
     fill="#2F2D3C"
     id="rect15"
     style="fill:#3f7524;fill-opacity:1" />
  <rect
     x="650.63"
     y="369.131"
     width="140.706"
     height="6.47986"
     fill="#443C8E"
     id="rect16"
     style="fill:#3f7524;fill-opacity:1" />
  <circle
     cx="720.52"
     cy="405.696"
     r="5.09132"
     fill="#E1C9FF"
     id="circle16" />
  <circle
     cx="720.52"
     cy="445.501"
     r="5.09132"
     fill="#E1C9FF"
     id="circle17" />
  <circle
     cx="720.52"
     cy="485.306"
     r="5.09132"
     fill="#E1C9FF"
     id="circle18" />
  <rect
     x="733.517"
     y="300.204"
     width="2.70278"
     height="61.9472"
     fill="#2F2D3C"
     stroke="#2F2D3C"
     id="rect18"
     style="fill:#3f7524;fill-opacity:1" />
  <path
     d="M770.045 299.704H698.766L712.189 233.979H757.548L770.045 299.704Z"
     fill="#EC9147"
     id="path18"
     style="fill:#15270c;fill-opacity:1" />
  <path
     d="M755.233 299.704V323.772"
     stroke="#2F2D3C"
     id="path19" />
  <circle
     cx="755.233"
     cy="324.698"
     r="1.85139"
     fill="#443C8E"
     id="circle19"
     style="fill:#3f7524;fill-opacity:1" />
  <path
     d="M662.817 369.376L658.961 343.212H683.748L680.168 369.376H662.817Z"
     fill="#2F2D3C"
     stroke="#2F2D3C"
     id="path20"
     style="fill:#3f7524;fill-opacity:1;stroke:none" />
  <path
     d="M689.046 349.821H681.27L680.168 360.838H687.658L689.046 349.821Z"
     fill="#2F2D3C"
     stroke="#2F2D3C"
     stroke-width="2"
     id="path21"
     style="fill:#3f7524;fill-opacity:1;stroke:none" />
  <path
     d="M485.124 358.864C486.909 351.666 489.431 325.273 486.017 311.177C485.586 309.399 484.585 306.989 482.447 305.478C479.768 303.585 476.51 303.526 473.82 303.379C446.452 301.879 434.85 302.179 418.786 303.379C415.394 303.632 413.207 304.186 411.051 305.178C407.764 306.692 407.332 311.434 407.184 314.476C406.292 332.771 406.292 340.269 407.184 352.865C407.374 355.552 407.417 357.684 408.672 360.063C410.065 362.706 416.141 363.742 418.786 363.962C451.211 366.661 452.104 366.362 474.713 365.162C477.089 365.036 479.175 365.162 481.555 363.662C483.839 362.223 484.586 361.034 485.124 358.864Z"
     fill="#2A6657"
     id="path22"
     style="fill:#3f7524;fill-opacity:1" />
  <path
     d="M462.633 338.98C470.992 335.18 491.349 324.558 486.017 311.177C485.045 308.737 484.585 306.989 482.447 305.478C479.768 303.585 476.51 303.526 473.82 303.379C446.452 301.879 434.85 302.179 418.786 303.379C415.395 303.632 413.207 304.186 411.052 305.178C407.764 306.692 407.45 311.442 407.184 314.476C406.117 326.642 405.448 340.676 408.107 344.154C413.281 350.92 433.165 347.444 437.957 346.94C445.52 346.144 455.868 342.055 462.633 338.98Z"
     fill="#3C8E7A"
     id="path23"
     style="fill:#69c33c;fill-opacity:1" />
  <path
     d="M304.684 207.107V226.252H329.811L329.812 207.107H304.684Z"
     fill="#FFC597"
     id="path24" />
  <path
     d="M224.93 371.119C231.023 368.736 235.199 370.242 241.682 371.119C253.119 372.665 269.202 381.888 269.202 381.888L272.792 391.46C272.792 391.46 240.485 392.656 216.555 392.656H216.554C212.375 392.656 211.598 392.656 210.572 389.067C208.178 380.691 216.571 374.388 224.93 371.119Z"
     fill="#FFD2A9"
     id="path25" />
  <path
     d="M261.833 229.841C266.392 223.859 304.909 216.679 304.909 216.679C304.909 216.679 311.43 223.635 316.874 223.859C322.725 224.099 330.036 216.679 330.036 216.679C330.036 216.679 360.511 223.143 368.326 229.841C385.077 244.2 398.239 287.275 398.239 307.617C398.239 317.25 392.257 331.548 392.257 331.548L231.92 326.761C231.92 326.761 231.413 315.076 231.92 307.617C233.139 289.668 242.689 254.969 261.833 229.841Z"
     fill="#2F2D3C"
     id="path26"
     style="fill:#3f7524;fill-opacity:1" />
  <rect
     x="286.735"
     y="333.941"
     width="55.041"
     height="21.5378"
     fill="#133B93"
     id="rect26" />
  <path
     d="M258.019 276.506L262.805 325.565L265.198 341.12C297.903 341.519 363.315 342.077 363.315 341.12C363.315 340.163 370.494 297.645 374.083 276.506H258.019Z"
     fill="#CCCCCC"
     id="path27"
     style="fill:#15270c;fill-opacity:1" />
  <path
     d="M315.452 345.908C296.375 354.69 262.805 365.051 262.805 365.051L269.984 391.375C269.984 391.375 326.221 389.638 346.562 382.999C353.742 380.656 399.721 369.721 412.372 345.908C415.338 340.326 418.355 329.157 414.193 321.245C410.031 313.333 398.014 302.833 381.262 310.012C364.511 317.191 342.462 333.475 315.452 345.908Z"
     fill="#042A80"
     id="path28" />
  <path
     d="M313.06 345.908C293.982 354.69 262.805 365.053 262.805 365.053L271.181 390.18C271.181 390.18 323.828 388.444 344.17 381.805C351.349 379.461 397.329 369.721 409.98 345.908C412.946 340.326 415.962 329.157 411.801 321.245C407.639 313.333 395.621 302.833 378.87 310.012C362.118 317.191 340.069 333.475 313.06 345.908Z"
     fill="#133B93"
     id="path29" />
  <path
     d="M313.06 345.908C293.982 354.69 262.805 365.053 262.805 365.053L271.181 390.18C271.181 390.18 323.828 388.444 344.17 381.805C351.349 379.461 397.329 369.721 409.98 345.908C412.946 340.326 415.962 329.157 411.801 321.245C407.639 313.333 395.621 302.833 378.87 310.012C362.118 317.191 340.069 333.475 313.06 345.908Z"
     fill="url(#paint0_linear_1_235)"
     id="path30" />
  <path
     d="M368.351 373.886C364.137 373.388 357.421 371.401 357.421 371.401L351.349 392.433C351.349 392.433 386.568 396.161 410.856 396.161C415.159 396.161 416.596 390.734 415.714 386.22C414.5 380.007 401.141 370.965 397.498 370.158C390.942 368.707 379.281 372.643 379.281 372.643C379.281 372.643 373.866 374.537 368.351 373.886Z"
     fill="#FFD2A9"
     id="path31" />
  <path
     d="M308.274 345.906C327.029 356.749 359.725 367.444 359.725 367.444L351.349 392.571C351.349 392.571 297.95 391.978 276.96 385.137C269.551 382.722 223.34 372.685 210.285 348.147C207.224 342.394 202.876 330.885 207.171 322.732C211.465 314.579 225.101 302.526 242.387 309.924C259.674 317.322 284.814 332.343 308.274 345.906Z"
     fill="#042A80"
     id="path32" />
  <path
     d="M308.249 346.948C326.425 357.471 357.332 368.64 357.332 368.64L350.128 391.22C350.128 391.22 297.48 389.484 277.139 382.844C269.96 380.501 225.177 370.761 212.526 346.948C209.56 341.366 205.346 330.197 209.508 322.285C213.67 314.373 226.884 302.676 243.636 309.855C260.388 317.035 285.515 333.786 308.249 346.948Z"
     fill="#133B93"
     id="path33" />
  <path
     d="M308.249 346.948C326.425 357.471 357.332 368.64 357.332 368.64L350.128 391.22C350.128 391.22 297.48 389.484 277.139 382.844C269.96 380.501 225.177 370.761 212.526 346.948C209.56 341.366 205.346 330.197 209.508 322.285C213.67 314.373 226.884 302.676 243.636 309.855C260.388 317.035 285.515 333.786 308.249 346.948Z"
     fill="url(#paint1_linear_1_235)"
     id="path34" />
  <ellipse
     cx="317.846"
     cy="177.193"
     rx="28.7171"
     ry="27.5205"
     fill="black"
     id="ellipse34" />
  <g
     filter="url(#filter2_d_1_235)"
     id="g35">
    <path
       d="M306.209 209.35C301.403 204.695 297.833 193.794 297.833 193.794C297.833 193.794 293.707 177.56 299.029 169.864C302.06 165.481 304.845 163.45 309.798 161.488C316.314 158.906 321.602 158.116 327.746 161.488C333.654 164.73 335.327 169.408 337.319 175.846C338.799 180.632 338.347 189.008 337.319 193.794C336.042 199.733 335.455 204.885 331.336 209.349C327.085 213.957 323.221 215.902 316.977 215.332C312.186 214.895 309.664 212.697 306.209 209.35Z"
       fill="#FFD6B6"
       id="path35" />
  </g>
  <path
     d="M296.1 177.558C295.614 177.296 295.008 177.478 294.746 177.964C294.484 178.45 294.666 179.057 295.152 179.319L296.1 177.558ZM302.117 180.798L296.1 177.558L295.152 179.319L301.169 182.558L302.117 180.798Z"
     fill="black"
     id="path36" />
  <path
     d="M339.123 177.095C339.609 176.833 340.216 177.015 340.477 177.501C340.739 177.987 340.557 178.594 340.071 178.856L339.123 177.095ZM333.106 180.335L339.123 177.095L340.071 178.856L334.054 182.096L333.106 180.335Z"
     fill="black"
     id="path37" />
  <path
     d="M341.298 178.422C339.316 178.038 336.99 181.209 336.99 181.209V195.142C336.99 195.142 339.058 193.186 339.862 192.355C341.412 190.753 344.17 183.995 344.17 182.602C344.17 181.209 343.281 178.807 341.298 178.422Z"
     fill="#FFD6B6"
     id="path38" />
  <path
     d="M293.915 178.39C295.898 178.005 297.505 180.783 297.505 180.783L298.702 193.945C298.702 193.945 295.916 191.187 295.112 190.355C293.562 188.754 291.522 183.373 291.522 181.98C291.522 180.586 291.933 178.775 293.915 178.39Z"
     fill="#FFD6B6"
     id="path39" />
  <path
     d="M315.066 183.066L321.083 183.066"
     stroke="black"
     stroke-width="2"
     id="path40" />
  <path
     d="M295.194 161.122C293.449 165.482 293.997 173.088 293.997 173.088C293.997 173.088 302.012 172.361 305.963 169.498C308.918 167.356 311.257 165.903 311.945 162.319C312.587 158.978 312.137 156.155 309.552 153.943C307.042 151.795 304.286 151.629 301.176 152.746C297.394 154.106 296.687 157.39 295.194 161.122Z"
     fill="black"
     id="path41" />
  <path
     d="M313.637 143.796C310.371 145.014 304.949 149.688 306.018 155.973C306.481 158.697 307.623 160.002 309.283 162.061C312.983 166.653 318.308 168.029 323.829 168.818C332.204 170.014 335.332 170.429 341.777 168.818C346.563 167.621 348.791 166.424 352.546 162.061C355.634 158.473 356.276 154.729 356.084 149.884C355.889 144.924 353.908 137.707 353.908 137.707C353.908 137.707 350.262 140.631 347.76 142.494C344.064 145.243 341.418 145.221 336.991 144.887C333.367 144.613 329.77 142.899 324.521 142.578C320.255 142.317 316.187 142.845 313.637 143.796Z"
     fill="black"
     id="path42" />
  <circle
     cx="308.273"
     cy="183.176"
     r="6.17926"
     stroke="black"
     stroke-width="2"
     id="circle42" />
  <circle
     cx="327.418"
     cy="183.176"
     r="6.17926"
     stroke="black"
     stroke-width="2"
     id="circle43" />
  <circle
     cx="315.453"
     cy="310.01"
     r="7.17926"
     fill="white"
     id="circle44"
     style="fill:#e5bf00;fill-opacity:1" />
  <path
     d="M295.434 181.625C297.785 181.626 300.797 189.234 300.797 189.234L298.757 191.274C298.757 191.274 293.095 186.255 293.095 184.214C293.094 182.758 293.821 181.625 295.434 181.625Z"
     fill="black"
     id="path44" />
  <circle
     cx="468.268"
     cy="177.512"
     r="37.9535"
     fill="#EC9147"
     id="circle45"
     style="fill:#15270c;fill-opacity:1" />
  <path
     d="M486.114 169.429L479.783 174.094C479.527 174.283 479.376 174.582 479.376 174.899V181.698C479.376 182.035 479.546 182.35 479.829 182.534L486.16 186.681C486.825 187.117 487.708 186.64 487.708 185.845V170.234C487.708 169.414 486.775 168.943 486.114 169.429Z"
     fill="white"
     id="path45"
     style="fill:#e5bf00;fill-opacity:1" />
  <path
     d="M448.829 169.181H473.599C475.256 169.181 476.599 170.524 476.599 172.181V186.769H451.829C450.172 186.769 448.829 185.426 448.829 183.769V169.181Z"
     fill="white"
     id="path46"
     style="fill:#e5bf00;fill-opacity:1" />
  <path
     d="M356.251 31.029C356.593 45.4812 346.787 53.8314 336.915 58.3211C334.248 59.534 332.915 59.534 332.915 59.534L338.915 71.0573L318.913 60.747C318.913 60.747 317.58 60.747 310.912 60.1405C288.317 58.0852 277.575 47.7768 277.575 31.029C277.575 14.2813 295.187 0.704559 316.913 0.704559C338.639 0.704559 355.818 12.7161 356.251 31.029Z"
     fill="#EC9147"
     id="path47"
     style="fill:#15270c;fill-opacity:1" />
  <circle
     cx="296.552"
     cy="31.7154"
     r="4.16563"
     fill="white"
     id="circle47"
     style="fill:#e5bf00;fill-opacity:1" />
  <circle
     cx="315.992"
     cy="31.7154"
     r="4.16563"
     fill="white"
     id="circle48"
     style="fill:#e5bf00;fill-opacity:1" />
  <circle
     cx="336.357"
     cy="31.7154"
     r="4.16563"
     fill="white"
     id="circle49"
     style="fill:#e5bf00;fill-opacity:1" />
  <path
     d="M116.531 358.251C114.594 350.438 111.857 321.792 115.562 306.492C116.029 304.563 117.116 301.947 119.437 300.308C122.344 298.253 125.881 298.189 128.8 298.029C158.505 296.401 171.097 296.727 188.533 298.029C192.214 298.304 194.588 298.905 196.928 299.982C200.496 301.625 200.964 306.772 201.125 310.073C202.094 329.93 202.094 338.068 201.125 351.74C200.918 354.657 200.872 356.971 199.511 359.553C197.998 362.421 191.404 363.545 188.533 363.784C153.339 366.714 152.37 366.389 127.832 365.087C125.252 364.95 122.988 365.087 120.405 363.459C117.926 361.897 117.115 360.607 116.531 358.251Z"
     fill="#2A6657"
     id="path49"
     style="fill:#3f7524;fill-opacity:1" />
  <path
     d="M140.942 336.669C131.87 332.546 109.775 321.016 115.562 306.492C116.617 303.845 117.116 301.947 119.437 300.307C122.344 298.253 125.881 298.189 128.8 298.029C158.505 296.401 171.097 296.727 188.533 298.029C192.214 298.304 194.588 298.905 196.927 299.982C200.496 301.625 200.836 306.781 201.125 310.073C202.283 323.278 203.01 338.51 200.123 342.285C194.508 349.629 172.927 345.856 167.725 345.309C159.517 344.445 148.286 340.007 140.942 336.669Z"
     fill="#3C8E7A"
     id="path50"
     style="fill:#69c33c;fill-opacity:1" />
  <path
     d="M248.87 81.0164C249.211 95.4686 239.406 103.819 229.534 108.308C226.867 109.521 225.534 109.521 225.534 109.521L231.534 121.045L211.532 110.734C211.532 110.734 210.199 110.734 203.531 110.128C180.936 108.073 170.194 97.7642 170.194 81.0164C170.194 64.2687 187.806 50.692 209.532 50.692C231.258 50.692 248.437 62.7035 248.87 81.0164Z"
     fill="#EC9147"
     id="path51"
     style="fill:#15270c;fill-opacity:1" />
  <path
     d="M192.666 70.2315L208.094 79.2447C208.613 79.5467 209.283 79.6899 209.958 79.6899C210.633 79.6899 211.304 79.5467 211.822 79.2447L227.25 70.2315C228.256 69.6431 229.206 67.3546 227.361 67.3546H192.557C190.712 67.3546 191.662 69.6431 192.666 70.2315ZM227.717 75.1598L211.822 84.1686C211.122 84.5668 210.633 84.6137 209.958 84.6137C209.283 84.6137 208.794 84.5668 208.094 84.1686C207.395 83.7704 193.421 75.8041 192.279 75.1575C191.477 74.7012 191.485 75.2358 191.485 75.6475V91.9626C191.485 92.9022 192.65 94.1997 193.543 94.1997H226.456C227.349 94.1997 228.513 92.9022 228.513 91.9626V75.6497C228.513 75.2381 228.521 74.7034 227.717 75.1598Z"
     fill="white"
     id="path52"
     style="fill:#e5bf00;fill-opacity:1" />
  <circle
     cx="180.377"
     cy="177.512"
     r="37.9535"
     fill="#EC9147"
     id="circle52"
     style="fill:#15270c;fill-opacity:1" />
  <path
     d="M199.289 192.403H163.837V160.25C163.837 160.023 163.652 159.837 163.425 159.837H160.54C160.313 159.837 160.127 160.023 160.127 160.25V195.701C160.127 195.927 160.313 196.113 160.54 196.113H199.289C199.515 196.113 199.701 195.927 199.701 195.701V192.815C199.701 192.588 199.515 192.403 199.289 192.403ZM167.547 189.105H195.166C195.393 189.105 195.579 188.92 195.579 188.693V166.227C195.579 165.856 195.13 165.675 194.873 165.933L184.036 176.769L177.575 170.38C177.497 170.303 177.393 170.26 177.284 170.26C177.175 170.26 177.07 170.303 176.993 170.38L167.254 180.15C167.216 180.188 167.186 180.233 167.166 180.282C167.145 180.332 167.135 180.385 167.135 180.438V188.693C167.135 188.92 167.321 189.105 167.547 189.105Z"
     fill="white"
     id="path53"
     style="fill:#e5bf00;fill-opacity:1" />
  <path
     d="M318.768 201.977C316.314 201.93 311.826 200.655 311.826 200.655C311.826 200.655 315.459 205.283 318.768 205.283C322.078 205.283 325.711 200.655 325.711 200.655C325.711 200.655 321.763 202.034 318.768 201.977Z"
     fill="#FFB58B"
     id="path54" />
  <path
     d="m 430.314,45.1379 c -19.425,0 -35.176,15.7509 -35.176,35.1764 0,19.4255 15.751,35.1767 35.176,35.1767 19.426,0 35.177,-15.7512 35.177,-35.1767 0,-19.4255 -15.751,-35.1764 -35.177,-35.1764 z"
     fill="#EC9147"
     id="path55"
     style="fill:#15270c;fill-opacity:1"
     sodipodi:nodetypes="sssss" />
  <defs
     id="defs68">
    <filter
       id="filter0_d_1_235"
       x="74.8818"
       y="355.354"
       width="251.721"
       height="62.8792"
       filterUnits="userSpaceOnUse"
       color-interpolation-filters="sRGB">
      <feFlood
         flood-opacity="0"
         result="BackgroundImageFix"
         id="feFlood55" />
      <feColorMatrix
         in="SourceAlpha"
         type="matrix"
         values="0 0 0 0 0 0 0 0 0 0 0 0 0 0 0 0 0 0 127 0"
         result="hardAlpha"
         id="feColorMatrix55" />
      <feOffset
         dy="1"
         id="feOffset55" />
      <feGaussianBlur
         stdDeviation="6"
         id="feGaussianBlur55" />
      <feColorMatrix
         type="matrix"
         values="0 0 0 0 0 0 0 0 0 0 0 0 0 0 0 0 0 0 0.15 0"
         id="feColorMatrix56" />
      <feBlend
         mode="normal"
         in2="BackgroundImageFix"
         result="effect1_dropShadow_1_235"
         id="feBlend56" />
      <feBlend
         mode="normal"
         in="SourceGraphic"
         in2="effect1_dropShadow_1_235"
         result="shape"
         id="feBlend57" />
    </filter>
    <filter
       id="filter1_d_1_235"
       x="305.454"
       y="354.354"
       width="251.721"
       height="62.8792"
       filterUnits="userSpaceOnUse"
       color-interpolation-filters="sRGB">
      <feFlood
         flood-opacity="0"
         result="BackgroundImageFix"
         id="feFlood57" />
      <feColorMatrix
         in="SourceAlpha"
         type="matrix"
         values="0 0 0 0 0 0 0 0 0 0 0 0 0 0 0 0 0 0 127 0"
         result="hardAlpha"
         id="feColorMatrix57" />
      <feOffset
         dx="1"
         id="feOffset57" />
      <feGaussianBlur
         stdDeviation="6"
         id="feGaussianBlur57" />
      <feColorMatrix
         type="matrix"
         values="0 0 0 0 0 0 0 0 0 0 0 0 0 0 0 0 0 0 0.15 0"
         id="feColorMatrix58" />
      <feBlend
         mode="normal"
         in2="BackgroundImageFix"
         result="effect1_dropShadow_1_235"
         id="feBlend58" />
      <feBlend
         mode="normal"
         in="SourceGraphic"
         in2="effect1_dropShadow_1_235"
         result="shape"
         id="feBlend59" />
    </filter>
    <filter
       id="filter2_d_1_235"
       x="292.308"
       y="157.245"
       width="49.9588"
       height="64.1837"
       filterUnits="userSpaceOnUse"
       color-interpolation-filters="sRGB">
      <feFlood
         flood-opacity="0"
         result="BackgroundImageFix"
         id="feFlood59" />
      <feColorMatrix
         in="SourceAlpha"
         type="matrix"
         values="0 0 0 0 0 0 0 0 0 0 0 0 0 0 0 0 0 0 127 0"
         result="hardAlpha"
         id="feColorMatrix59" />
      <feOffset
         dy="2"
         id="feOffset59" />
      <feGaussianBlur
         stdDeviation="2"
         id="feGaussianBlur59" />
      <feColorMatrix
         type="matrix"
         values="0 0 0 0 1 0 0 0 0 1 0 0 0 0 1 0 0 0 0.47 0"
         id="feColorMatrix60" />
      <feBlend
         mode="normal"
         in2="BackgroundImageFix"
         result="effect1_dropShadow_1_235"
         id="feBlend60" />
      <feBlend
         mode="normal"
         in="SourceGraphic"
         in2="effect1_dropShadow_1_235"
         result="shape"
         id="feBlend61" />
    </filter>
    <linearGradient
       id="paint0_linear_1_235"
       x1="269.984"
       y1="384.195"
       x2="411.176"
       y2="317.189"
       gradientUnits="userSpaceOnUse">
      <stop
         offset="0.330956"
         stop-color="white"
         stop-opacity="0.32"
         id="stop61" />
      <stop
         offset="0.711686"
         stop-color="white"
         stop-opacity="0"
         id="stop62" />
      <stop
         offset="0.999098"
         stop-color="#0D3692"
         stop-opacity="0"
         id="stop63" />
    </linearGradient>
    <linearGradient
       id="paint1_linear_1_235"
       x1="328.615"
       y1="326.761"
       x2="281.95"
       y2="379.409"
       gradientUnits="userSpaceOnUse">
      <stop
         stop-color="white"
         stop-opacity="0.38"
         id="stop64" />
      <stop
         offset="0.263244"
         stop-color="white"
         stop-opacity="0.4"
         id="stop65" />
      <stop
         offset="0.565345"
         stop-color="white"
         stop-opacity="0.11"
         id="stop66" />
      <stop
         offset="0.732021"
         stop-color="#133B93"
         stop-opacity="0"
         id="stop67" />
      <stop
         offset="1"
         stop-color="#133B93"
         id="stop68" />
    </linearGradient>
  </defs>
  <path
     id="rect69"
     style="fill:#e5bf00;fill-opacity:1;stroke-width:7.55906;stroke-linecap:round"
     d="M 429.26172 60.126953 C 428.91672 60.126953 428.63477 60.41036 428.63477 60.755859 L 428.63477 63.345703 C 423.07577 63.887503 418.72461 66.965459 418.72461 72.689453 C 418.72461 77.997348 422.63519 80.557563 426.74219 81.539062 L 428.68164 82.033203 L 428.68164 93.238281 C 425.20364 92.774982 423.26328 90.914779 422.86328 88.425781 C 422.81628 88.127382 422.54819 87.90625 422.24219 87.90625 L 418.61523 87.90625 C 418.24623 87.90625 417.95533 88.220744 417.98633 88.589844 C 418.33933 92.908339 421.62271 96.882191 428.5957 97.400391 L 428.5957 99.865234 C 428.5957 100.21073 428.87766 100.49414 429.22266 100.49414 L 431.45312 100.49414 C 431.79812 100.49414 432.08008 100.20282 432.08008 99.857422 L 432.06445 97.369141 C 438.21245 96.835141 442.60938 93.537494 442.60938 87.625 C 442.60938 82.175805 439.14854 79.740674 434.06055 78.484375 L 432.06445 78.021484 L 432.06445 67.476562 C 435.05645 67.884862 436.89303 69.754077 437.20703 72.046875 C 437.24703 72.353075 437.51413 72.587891 437.82812 72.587891 L 441.35352 72.587891 C 441.73052 72.587891 442.02242 72.265484 441.98242 71.896484 C 441.51142 67.004789 437.47565 63.864065 432.09766 63.322266 L 432.09766 60.755859 C 432.09766 60.41036 431.81375 60.126953 431.46875 60.126953 L 429.26172 60.126953 z M 428.67383 67.484375 L 428.67383 77.220703 C 428.23483 77.095003 427.86509 76.977325 427.49609 76.828125 C 424.8421 75.870126 423.60938 74.322523 423.60938 72.328125 C 423.60938 69.477928 425.77683 67.853475 428.67383 67.484375 z M 432.06445 82.771484 C 432.31645 82.842184 432.53686 82.898213 432.75586 82.945312 C 436.46986 84.075911 437.71875 85.646143 437.71875 88.056641 C 437.71875 91.134638 435.40945 92.971132 432.06445 93.269531 L 432.06445 82.771484 z " />
</svg>
