<svg width="19" height="19" viewBox="0 0 19 19" fill="none" xmlns="http://www.w3.org/2000/svg">
<path d="M5.26932 0.291992H12.8293C15.7093 0.291992 18.0493 2.63199 18.0493 5.51199V13.072C18.0493 14.4564 17.4994 15.7842 16.5204 16.7631C15.5415 17.742 14.2137 18.292 12.8293 18.292H5.26932C2.38932 18.292 0.0493164 15.952 0.0493164 13.072V5.51199C0.0493164 4.12756 0.599279 2.79983 1.57822 1.82089C2.55716 0.841955 3.88489 0.291992 5.26932 0.291992ZM5.08932 2.09199C4.23001 2.09199 3.40591 2.43335 2.79829 3.04097C2.19067 3.64858 1.84932 4.47269 1.84932 5.33199V13.252C1.84932 15.043 3.29832 16.492 5.08932 16.492H13.0093C13.8686 16.492 14.6927 16.1506 15.3003 15.543C15.908 14.9354 16.2493 14.1113 16.2493 13.252V5.33199C16.2493 3.54099 14.8003 2.09199 13.0093 2.09199H5.08932ZM13.7743 3.44199C14.0727 3.44199 14.3588 3.56052 14.5698 3.7715C14.7808 3.98248 14.8993 4.26862 14.8993 4.56699C14.8993 4.86536 14.7808 5.15151 14.5698 5.36249C14.3588 5.57347 14.0727 5.69199 13.7743 5.69199C13.4759 5.69199 13.1898 5.57347 12.9788 5.36249C12.7678 5.15151 12.6493 4.86536 12.6493 4.56699C12.6493 4.26862 12.7678 3.98248 12.9788 3.7715C13.1898 3.56052 13.4759 3.44199 13.7743 3.44199ZM9.04932 4.79199C10.2428 4.79199 11.3874 5.2661 12.2313 6.11001C13.0752 6.95393 13.5493 8.09852 13.5493 9.29199C13.5493 10.4855 13.0752 11.6301 12.2313 12.474C11.3874 13.3179 10.2428 13.792 9.04932 13.792C7.85584 13.792 6.71125 13.3179 5.86734 12.474C5.02342 11.6301 4.54932 10.4855 4.54932 9.29199C4.54932 8.09852 5.02342 6.95393 5.86734 6.11001C6.71125 5.2661 7.85584 4.79199 9.04932 4.79199ZM9.04932 6.59199C8.33323 6.59199 7.64648 6.87646 7.14013 7.3828C6.63378 7.88915 6.34932 8.57591 6.34932 9.29199C6.34932 10.0081 6.63378 10.6948 7.14013 11.2012C7.64648 11.7075 8.33323 11.992 9.04932 11.992C9.7654 11.992 10.4522 11.7075 10.9585 11.2012C11.4649 10.6948 11.7493 10.0081 11.7493 9.29199C11.7493 8.57591 11.4649 7.88915 10.9585 7.3828C10.4522 6.87646 9.7654 6.59199 9.04932 6.59199Z" fill="white"/>
</svg>
