<?xml version="1.0" encoding="UTF-8" standalone="no"?>
<!-- Created with Inkscape (http://www.inkscape.org/) -->

<svg
   width="151.50592mm"
   height="68.044075mm"
   viewBox="0 0 151.50592 68.044075"
   version="1.1"
   id="svg381"
   inkscape:version="1.3 (0e150ed6c4, 2023-07-21)"
   sodipodi:docname="logo.svg"
   xmlns:inkscape="http://www.inkscape.org/namespaces/inkscape"
   xmlns:sodipodi="http://sodipodi.sourceforge.net/DTD/sodipodi-0.dtd"
   xmlns="http://www.w3.org/2000/svg"
   xmlns:svg="http://www.w3.org/2000/svg">
  <sodipodi:namedview
     id="namedview383"
     pagecolor="#ffffff"
     bordercolor="#666666"
     borderopacity="1.0"
     inkscape:showpageshadow="2"
     inkscape:pageopacity="0.0"
     inkscape:pagecheckerboard="0"
     inkscape:deskcolor="#d1d1d1"
     inkscape:document-units="mm"
     showgrid="false"
     inkscape:zoom="0.8409652"
     inkscape:cx="458.9964"
     inkscape:cy="275.87348"
     inkscape:window-width="1920"
     inkscape:window-height="1053"
     inkscape:window-x="0"
     inkscape:window-y="27"
     inkscape:window-maximized="1"
     inkscape:current-layer="layer1" />
  <defs
     id="defs378" />
  <g
     inkscape:label="Layer 1"
     inkscape:groupmode="layer"
     id="layer1"
     transform="translate(285.91821,27.729665)">
    <path
       id="path2"
       style="color:#000000;fill:#e5bf00;fill-opacity:1;stroke-width:1;-inkscape-stroke:none"
       d="m -251.89483,-27.729665 c -18.75292,0 -34.02338,15.270493 -34.02338,34.0233417 0,18.7528423 15.27046,34.0207343 34.02338,34.0207343 18.75285,0 34.02338,-15.267892 34.02338,-34.0207343 0,-18.7528487 -15.27053,-34.0233417 -34.02338,-34.0233417 z m 0,6.326779 c 15.33335,0 27.69654,12.3631601 27.69654,27.6965627 0,15.3333953 -12.36319,27.6933113 -27.69654,27.6933113 -15.33349,0 -27.696,-12.359916 -27.696,-27.6933113 0,-15.3334026 12.36251,-27.6965627 27.696,-27.6965627 z m 36.2603,13.7593572 V 22.783845 h 15.19033 l 8.63314,-4.982946 V -3.847472 h -6.32738 v 17.995508 l -2.60467,1.502726 V -7.6435288 h -6.32746 V 16.456416 h -2.23712 V -7.6435288 Z m 26.05991,3.7960568 v 19.821933 l 6.32746,-1.695637 V 2.4799507 h 2.2365 V 13.679829 l 6.32732,1.695644 V -3.847472 Z m 17.12573,0 v 19.821289 6.44e-4 l 6.32486,-1.694323 v -3.545615 h 8.56376 V -3.847472 Z m 17.12772,0 v 15.233313 l 6.32684,4.58862 V 2.4799507 h 4.5526 l 3.70205,2.1370522 6.32739,-3.65286212 -8.33375,-4.81161278 z m -109.81846,2.0651093 a 8.0746735,8.0746735 0 0 0 -8.07406,8.0747392 8.0746735,8.0746735 0 0 0 8.07406,8.0747325 8.0746735,8.0746735 0 0 0 8.07481,-8.0747325 8.0746735,8.0746735 0 0 0 -8.07481,-8.0747392 z m 99.01745,4.2623134 h 2.23719 v 1.9277999 h -2.23719 z" />
  </g>
</svg>
