<svg width="20" height="17" viewBox="0 0 20 17" fill="none" xmlns="http://www.w3.org/2000/svg">
<path d="M1.04932 2.93485C1.04932 2.36653 1.26003 1.82148 1.6351 1.41962C2.01018 1.01776 2.51888 0.791992 3.04932 0.791992H17.0493C17.5797 0.791992 18.0885 1.01776 18.4635 1.41962C18.8386 1.82148 19.0493 2.36653 19.0493 2.93485M1.04932 2.93485V13.6491C1.04932 14.2175 1.26003 14.7625 1.6351 15.1644C2.01018 15.5662 2.51888 15.792 3.04932 15.792H17.0493C17.5797 15.792 18.0885 15.5662 18.4635 15.1644C18.8386 14.7625 19.0493 14.2175 19.0493 13.6491V2.93485M1.04932 2.93485L10.0493 9.36342L19.0493 2.93485" stroke="white" stroke-width="1.5" stroke-linecap="round" stroke-linejoin="round"/>
</svg>
