<svg width="19" height="19" viewBox="0 0 19 19" fill="none" xmlns="http://www.w3.org/2000/svg">
<path d="M15.4262 2.91104C14.5969 2.07757 13.6092 1.41674 12.5205 0.96709C11.4319 0.517436 10.2642 0.28796 9.0855 0.292046C4.1468 0.292046 0.121678 4.29703 0.121678 9.21102C0.121678 10.786 0.537759 12.316 1.31565 13.666L0.0493164 18.292L4.79806 17.05C6.10962 17.761 7.58399 18.139 9.0855 18.139C14.0242 18.139 18.0493 14.134 18.0493 9.22002C18.0493 6.83503 17.1177 4.59403 15.4262 2.91104ZM9.0855 16.627C7.7468 16.627 6.43525 16.267 5.2865 15.592L5.01514 15.43L2.19303 16.168L2.94379 13.432L2.76288 13.153C2.01914 11.9713 1.62422 10.6053 1.62319 9.21102C1.62319 5.12503 4.96992 1.79504 9.07645 1.79504C11.0664 1.79504 12.9388 2.56904 14.3408 3.97304C15.035 4.6606 15.5851 5.47843 15.9593 6.37911C16.3335 7.27979 16.5243 8.24542 16.5207 9.22002C16.5388 13.306 13.192 16.627 9.0855 16.627ZM13.1739 11.083C12.9478 10.975 11.8443 10.435 11.6453 10.354C11.4373 10.282 11.2925 10.246 11.1388 10.462C10.985 10.687 10.5599 11.191 10.4332 11.335C10.3066 11.488 10.1709 11.506 9.94479 11.389C9.71866 11.281 8.99504 11.038 8.14479 10.282C7.47545 9.68802 7.03223 8.95902 6.89655 8.73402C6.76992 8.50902 6.87846 8.39202 6.99605 8.27502C7.09555 8.17602 7.22218 8.01402 7.33072 7.88802C7.43927 7.76202 7.48449 7.66302 7.55685 7.51902C7.62922 7.36602 7.59303 7.24003 7.53876 7.13203C7.48449 7.02403 7.03223 5.92603 6.85133 5.47603C6.67042 5.04403 6.48047 5.09803 6.34479 5.08903H5.91062C5.75685 5.08903 5.52168 5.14303 5.31364 5.36803C5.11464 5.59303 4.53575 6.13303 4.53575 7.23103C4.53575 8.32902 5.34077 9.39102 5.44932 9.53502C5.55786 9.68802 7.03223 11.938 9.27545 12.901C9.80911 13.135 10.2252 13.27 10.5508 13.369C11.0845 13.54 11.5729 13.513 11.9619 13.459C12.396 13.396 13.2915 12.919 13.4724 12.397C13.6624 11.875 13.6624 11.434 13.5991 11.335C13.5357 11.236 13.4001 11.191 13.1739 11.083Z" fill="white"/>
</svg>
